<?xml version="1.0" encoding="UTF-8" standalone="no"?>
<!DOCTYPE svg PUBLIC "-//W3C//DTD SVG 1.1//EN"
 "http://www.w3.org/Graphics/SVG/1.1/DTD/svg11.dtd">
<!-- Generated by graphviz version 2.38.0 (20140413.2041)
 -->
<!-- Title: controllers_diagram Pages: 1 -->
<svg width="572pt" height="568pt"
 viewBox="0.00 0.00 572.37 568.00" xmlns="http://www.w3.org/2000/svg" xmlns:xlink="http://www.w3.org/1999/xlink">
<g id="graph0" class="graph" transform="scale(1 1) rotate(0) translate(207.548 377.5)">
<title>controllers_diagram</title>
<polygon fill="white" stroke="none" points="-207.548,190.5 -207.548,-377.5 364.821,-377.5 364.821,190.5 -207.548,190.5"/>
<!-- _diagram_info -->
<g id="node1" class="node"><title>_diagram_info</title>
<text text-anchor="start" x="93.3123" y="127.9" font-family="Times,serif" font-size="13.00">Controllers diagram</text>
<text text-anchor="start" x="93.3123" y="140.9" font-family="Times,serif" font-size="13.00">Date: May 25 2015 &#45; 00:31</text>
<text text-anchor="start" x="93.3123" y="153.9" font-family="Times,serif" font-size="13.00">Migration version: 20150510223018</text>
<text text-anchor="start" x="93.3123" y="166.9" font-family="Times,serif" font-size="13.00">Generated by RailRoady 1.3.0</text>
<text text-anchor="start" x="93.3123" y="179.9" font-family="Times,serif" font-size="13.00">http://railroady.prestonlee.com</text>
</g>
<!-- ApplicationController -->
<g id="node2" class="node"><title>ApplicationController</title>
<path fill="none" stroke="black" d="M233.179,84C233.179,84 348.821,84 348.821,84 354.821,84 360.821,78 360.821,72 360.821,72 360.821,4 360.821,4 360.821,-2 354.821,-8 348.821,-8 348.821,-8 233.179,-8 233.179,-8 227.179,-8 221.179,-2 221.179,4 221.179,4 221.179,72 221.179,72 221.179,78 227.179,84 233.179,84"/>
<text text-anchor="middle" x="291" y="7.2" font-family="Times,serif" font-size="14.00">ApplicationController</text>
<polyline fill="none" stroke="black" points="221.179,14 360.821,14 "/>
<polyline fill="none" stroke="black" points="221.179,38 360.821,38 "/>
<polyline fill="none" stroke="black" points="221.179,62 360.821,62 "/>
<text text-anchor="start" x="229.179" y="77.2" font-family="Times,serif" font-size="14.00">_layout</text>
</g>
<!-- CartsController -->
<g id="node3" class="node"><title>CartsController</title>
<path fill="none" stroke="black" d="M97.4517,84C97.4517,84 176.548,84 176.548,84 182.548,84 188.548,78 188.548,72 188.548,72 188.548,-120 188.548,-120 188.548,-126 182.548,-132 176.548,-132 176.548,-132 97.4517,-132 97.4517,-132 91.4517,-132 85.4517,-126 85.4517,-120 85.4517,-120 85.4517,72 85.4517,72 85.4517,78 91.4517,84 97.4517,84"/>
<text text-anchor="middle" x="137" y="-116.8" font-family="Times,serif" font-size="14.00">CartsController</text>
<polyline fill="none" stroke="black" points="85.4517,-110 188.548,-110 "/>
<text text-anchor="start" x="93.4517" y="-94.8" font-family="Times,serif" font-size="14.00">create</text>
<text text-anchor="start" x="93.4517" y="-80.8" font-family="Times,serif" font-size="14.00">destroy</text>
<text text-anchor="start" x="93.4517" y="-66.8" font-family="Times,serif" font-size="14.00">edit</text>
<text text-anchor="start" x="93.4517" y="-52.8" font-family="Times,serif" font-size="14.00">index</text>
<text text-anchor="start" x="93.4517" y="-38.8" font-family="Times,serif" font-size="14.00">new</text>
<text text-anchor="start" x="93.4517" y="-24.8" font-family="Times,serif" font-size="14.00">show</text>
<text text-anchor="start" x="93.4517" y="-10.8" font-family="Times,serif" font-size="14.00">update</text>
<polyline fill="none" stroke="black" points="85.4517,-4 188.548,-4 "/>
<polyline fill="none" stroke="black" points="85.4517,20 188.548,20 "/>
<text text-anchor="start" x="93.4517" y="35.2" font-family="Times,serif" font-size="14.00">_layout</text>
<text text-anchor="start" x="93.4517" y="49.2" font-family="Times,serif" font-size="14.00">cart_params</text>
<text text-anchor="start" x="93.4517" y="63.2" font-family="Times,serif" font-size="14.00">invalid_cart</text>
<text text-anchor="start" x="93.4517" y="77.2" font-family="Times,serif" font-size="14.00">set_cart</text>
</g>
<!-- LineItemsController -->
<g id="node4" class="node"><title>LineItemsController</title>
<path fill="none" stroke="black" d="M-73.1519,-137C-73.1519,-137 33.1519,-137 33.1519,-137 39.1519,-137 45.1519,-143 45.1519,-149 45.1519,-149 45.1519,-327 45.1519,-327 45.1519,-333 39.1519,-339 33.1519,-339 33.1519,-339 -73.1519,-339 -73.1519,-339 -79.1519,-339 -85.1519,-333 -85.1519,-327 -85.1519,-327 -85.1519,-149 -85.1519,-149 -85.1519,-143 -79.1519,-137 -73.1519,-137"/>
<text text-anchor="middle" x="-20" y="-323.8" font-family="Times,serif" font-size="14.00">LineItemsController</text>
<polyline fill="none" stroke="black" points="-85.1519,-317 45.1519,-317 "/>
<text text-anchor="start" x="-77.1519" y="-301.8" font-family="Times,serif" font-size="14.00">create</text>
<text text-anchor="start" x="-77.1519" y="-287.8" font-family="Times,serif" font-size="14.00">destroy</text>
<text text-anchor="start" x="-77.1519" y="-273.8" font-family="Times,serif" font-size="14.00">edit</text>
<text text-anchor="start" x="-77.1519" y="-259.8" font-family="Times,serif" font-size="14.00">index</text>
<text text-anchor="start" x="-77.1519" y="-245.8" font-family="Times,serif" font-size="14.00">new</text>
<text text-anchor="start" x="-77.1519" y="-231.8" font-family="Times,serif" font-size="14.00">show</text>
<text text-anchor="start" x="-77.1519" y="-217.8" font-family="Times,serif" font-size="14.00">update</text>
<polyline fill="none" stroke="black" points="-85.1519,-211 45.1519,-211 "/>
<polyline fill="none" stroke="black" points="-85.1519,-187 45.1519,-187 "/>
<text text-anchor="start" x="-77.1519" y="-171.8" font-family="Times,serif" font-size="14.00">_layout</text>
<text text-anchor="start" x="-77.1519" y="-157.8" font-family="Times,serif" font-size="14.00">line_item_params</text>
<text text-anchor="start" x="-77.1519" y="-143.8" font-family="Times,serif" font-size="14.00">set_line_item</text>
</g>
<!-- OrdersController -->
<g id="node5" class="node"><title>OrdersController</title>
<path fill="none" stroke="black" d="M182.179,-171C182.179,-171 269.821,-171 269.821,-171 275.821,-171 281.821,-177 281.821,-183 281.821,-183 281.821,-361 281.821,-361 281.821,-367 275.821,-373 269.821,-373 269.821,-373 182.179,-373 182.179,-373 176.179,-373 170.179,-367 170.179,-361 170.179,-361 170.179,-183 170.179,-183 170.179,-177 176.179,-171 182.179,-171"/>
<text text-anchor="middle" x="226" y="-357.8" font-family="Times,serif" font-size="14.00">OrdersController</text>
<polyline fill="none" stroke="black" points="170.179,-351 281.821,-351 "/>
<text text-anchor="start" x="178.179" y="-335.8" font-family="Times,serif" font-size="14.00">create</text>
<text text-anchor="start" x="178.179" y="-321.8" font-family="Times,serif" font-size="14.00">destroy</text>
<text text-anchor="start" x="178.179" y="-307.8" font-family="Times,serif" font-size="14.00">edit</text>
<text text-anchor="start" x="178.179" y="-293.8" font-family="Times,serif" font-size="14.00">index</text>
<text text-anchor="start" x="178.179" y="-279.8" font-family="Times,serif" font-size="14.00">new</text>
<text text-anchor="start" x="178.179" y="-265.8" font-family="Times,serif" font-size="14.00">show</text>
<text text-anchor="start" x="178.179" y="-251.8" font-family="Times,serif" font-size="14.00">update</text>
<polyline fill="none" stroke="black" points="170.179,-245 281.821,-245 "/>
<polyline fill="none" stroke="black" points="170.179,-221 281.821,-221 "/>
<text text-anchor="start" x="178.179" y="-205.8" font-family="Times,serif" font-size="14.00">_layout</text>
<text text-anchor="start" x="178.179" y="-191.8" font-family="Times,serif" font-size="14.00">order_params</text>
<text text-anchor="start" x="178.179" y="-177.8" font-family="Times,serif" font-size="14.00">set_order</text>
</g>
<!-- ProductsController -->
<g id="node6" class="node"><title>ProductsController</title>
<path fill="none" stroke="black" d="M-56.2725,118C-56.2725,118 42.2725,118 42.2725,118 48.2725,118 54.2725,112 54.2725,106 54.2725,106 54.2725,-86 54.2725,-86 54.2725,-92 48.2725,-98 42.2725,-98 42.2725,-98 -56.2725,-98 -56.2725,-98 -62.2725,-98 -68.2725,-92 -68.2725,-86 -68.2725,-86 -68.2725,106 -68.2725,106 -68.2725,112 -62.2725,118 -56.2725,118"/>
<text text-anchor="middle" x="-7" y="-82.8" font-family="Times,serif" font-size="14.00">ProductsController</text>
<polyline fill="none" stroke="black" points="-68.2725,-76 54.2725,-76 "/>
<text text-anchor="start" x="-60.2725" y="-60.8" font-family="Times,serif" font-size="14.00">create</text>
<text text-anchor="start" x="-60.2725" y="-46.8" font-family="Times,serif" font-size="14.00">destroy</text>
<text text-anchor="start" x="-60.2725" y="-32.8" font-family="Times,serif" font-size="14.00">edit</text>
<text text-anchor="start" x="-60.2725" y="-18.8" font-family="Times,serif" font-size="14.00">index</text>
<text text-anchor="start" x="-60.2725" y="-4.8" font-family="Times,serif" font-size="14.00">new</text>
<text text-anchor="start" x="-60.2725" y="9.2" font-family="Times,serif" font-size="14.00">show</text>
<text text-anchor="start" x="-60.2725" y="23.2" font-family="Times,serif" font-size="14.00">update</text>
<text text-anchor="start" x="-60.2725" y="37.2" font-family="Times,serif" font-size="14.00">who_bought</text>
<polyline fill="none" stroke="black" points="-68.2725,44 54.2725,44 "/>
<polyline fill="none" stroke="black" points="-68.2725,68 54.2725,68 "/>
<text text-anchor="start" x="-60.2725" y="83.2" font-family="Times,serif" font-size="14.00">_layout</text>
<text text-anchor="start" x="-60.2725" y="97.2" font-family="Times,serif" font-size="14.00">product_params</text>
<text text-anchor="start" x="-60.2725" y="111.2" font-family="Times,serif" font-size="14.00">set_product</text>
</g>
<!-- StoreController -->
<g id="node7" class="node"><title>StoreController</title>
<path fill="none" stroke="black" d="M-191.548,-18C-191.548,-18 -112.452,-18 -112.452,-18 -106.452,-18 -100.452,-24 -100.452,-30 -100.452,-30 -100.452,-96 -100.452,-96 -100.452,-102 -106.452,-108 -112.452,-108 -112.452,-108 -191.548,-108 -191.548,-108 -197.548,-108 -203.548,-102 -203.548,-96 -203.548,-96 -203.548,-30 -203.548,-30 -203.548,-24 -197.548,-18 -191.548,-18"/>
<text text-anchor="middle" x="-152" y="-92.8" font-family="Times,serif" font-size="14.00">StoreController</text>
<polyline fill="none" stroke="black" points="-203.548,-86 -100.452,-86 "/>
<text text-anchor="start" x="-195.548" y="-70.8" font-family="Times,serif" font-size="14.00">index</text>
<polyline fill="none" stroke="black" points="-203.548,-64 -100.452,-64 "/>
<polyline fill="none" stroke="black" points="-203.548,-40 -100.452,-40 "/>
<text text-anchor="start" x="-195.548" y="-24.8" font-family="Times,serif" font-size="14.00">_layout</text>
</g>
</g>
</svg>
