<?xml version="1.0" encoding="UTF-8" standalone="no"?>
<!DOCTYPE svg PUBLIC "-//W3C//DTD SVG 1.1//EN"
 "http://www.w3.org/Graphics/SVG/1.1/DTD/svg11.dtd">
<!-- Generated by graphviz version 2.38.0 (20140413.2041)
 -->
<!-- Title: models_diagram Pages: 1 -->
<svg width="330pt" height="225pt"
 viewBox="0.00 0.00 330.42 225.00" xmlns="http://www.w3.org/2000/svg" xmlns:xlink="http://www.w3.org/1999/xlink">
<g id="graph0" class="graph" transform="scale(1 1) rotate(0) translate(4 221)">
<title>models_diagram</title>
<polygon fill="white" stroke="none" points="-4,4 -4,-221 326.418,-221 326.418,4 -4,4"/>
<!-- _diagram_info -->
<g id="node1" class="node"><title>_diagram_info</title>
<text text-anchor="start" x="8" y="-202.6" font-family="Times,serif" font-size="13.00">Models diagram</text>
<text text-anchor="start" x="8" y="-189.6" font-family="Times,serif" font-size="13.00">Date: May 25 2015 &#45; 00:31</text>
<text text-anchor="start" x="8" y="-176.6" font-family="Times,serif" font-size="13.00">Migration version: 20150510223018</text>
<text text-anchor="start" x="8" y="-163.6" font-family="Times,serif" font-size="13.00">Generated by RailRoady 1.3.0</text>
<text text-anchor="start" x="8" y="-150.6" font-family="Times,serif" font-size="13.00">http://railroady.prestonlee.com</text>
</g>
<!-- Cart -->
<g id="node2" class="node"><title>Cart</title>
<ellipse fill="none" stroke="black" cx="177.688" cy="-90" rx="27" ry="18"/>
<text text-anchor="middle" x="177.688" y="-85.8" font-family="Times,serif" font-size="14.00">Cart</text>
</g>
<!-- LineItem -->
<g id="node3" class="node"><title>LineItem</title>
<ellipse fill="none" stroke="black" cx="232.688" cy="-18" rx="42.5369" ry="18"/>
<text text-anchor="middle" x="232.688" y="-13.8" font-family="Times,serif" font-size="14.00">LineItem</text>
</g>
<!-- Cart&#45;&gt;LineItem -->
<g id="edge1" class="edge"><title>Cart&#45;&gt;LineItem</title>
<path fill="none" stroke="#0145a7" d="M194.665,-67.3922C200.568,-59.8791 207.233,-51.3964 213.316,-43.6555"/>
<ellipse fill="none" stroke="#0145a7" cx="192.093" cy="-70.6658" rx="4.00002" ry="4.00002"/>
<polygon fill="#0145a7" stroke="#0145a7" points="213.445,-43.4911 223.161,-38.4081 216.534,-39.5595 219.623,-35.6278 219.623,-35.6278 219.623,-35.6278 216.534,-39.5595 216.085,-32.8476 213.445,-43.4911 213.445,-43.4911"/>
</g>
<!-- Order -->
<g id="node4" class="node"><title>Order</title>
<ellipse fill="none" stroke="black" cx="291.688" cy="-90" rx="30.9619" ry="18"/>
<text text-anchor="middle" x="291.688" y="-85.8" font-family="Times,serif" font-size="14.00">Order</text>
</g>
<!-- Order&#45;&gt;LineItem -->
<g id="edge2" class="edge"><title>Order&#45;&gt;LineItem</title>
<path fill="none" stroke="#04876f" d="M273.43,-67.3382C267.069,-59.7913 259.888,-51.2713 253.346,-43.5097"/>
<ellipse fill="none" stroke="#04876f" cx="276.016" cy="-70.4062" rx="4.00002" ry="4.00002"/>
<polygon fill="#04876f" stroke="#04876f" points="253.012,-43.1135 250.008,-32.567 249.79,-39.2903 246.567,-35.4672 246.567,-35.4672 246.567,-35.4672 249.79,-39.2903 243.126,-38.3673 253.012,-43.1135 253.012,-43.1135"/>
</g>
<!-- Product -->
<g id="node5" class="node"><title>Product</title>
<ellipse fill="none" stroke="black" cx="262.688" cy="-180.5" rx="37.7352" ry="18"/>
<text text-anchor="middle" x="262.688" y="-176.3" font-family="Times,serif" font-size="14.00">Product</text>
</g>
<!-- Product&#45;&gt;LineItem -->
<g id="edge3" class="edge"><title>Product&#45;&gt;LineItem</title>
<path fill="none" stroke="#689e7d" d="M257.936,-154.079C252.416,-124.546 243.348,-76.0318 237.713,-45.8878"/>
<ellipse fill="none" stroke="#689e7d" cx="258.742" cy="-158.392" rx="4.00001" ry="4.00001"/>
<polygon fill="#689e7d" stroke="#689e7d" points="237.713,-45.8826 240.299,-35.226 236.794,-40.9677 235.875,-36.0528 235.875,-36.0528 235.875,-36.0528 236.794,-40.9677 231.452,-36.8796 237.713,-45.8826 237.713,-45.8826"/>
</g>
<!-- Product&#45;&gt;Order -->
<g id="edge4" class="edge"><title>Product&#45;&gt;Order</title>
<path fill="none" stroke="#fe2c1b" d="M271.53,-152.515C275.165,-141.422 279.363,-128.612 282.983,-117.563"/>
<polygon fill="#fe2c1b" stroke="#fe2c1b" points="271.393,-152.933 264.003,-161.035 269.836,-157.685 268.279,-162.436 268.279,-162.436 268.279,-162.436 269.836,-157.685 272.556,-163.838 271.393,-152.933 271.393,-152.933"/>
<polygon fill="#fe2c1b" stroke="#fe2c1b" points="282.999,-117.514 290.39,-109.413 284.556,-112.763 286.113,-108.011 286.113,-108.011 286.113,-108.011 284.556,-112.763 281.837,-106.61 282.999,-117.514 282.999,-117.514"/>
</g>
</g>
</svg>
