<?xml version="1.0" encoding="UTF-8" standalone="no"?>
<!DOCTYPE svg PUBLIC "-//W3C//DTD SVG 1.1//EN"
 "http://www.w3.org/Graphics/SVG/1.1/DTD/svg11.dtd">
<!-- Generated by graphviz version 2.38.0 (20140413.2041)
 -->
<!-- Title: models_diagram Pages: 1 -->
<svg width="413pt" height="467pt"
 viewBox="0.00 0.00 413.19 467.00" xmlns="http://www.w3.org/2000/svg" xmlns:xlink="http://www.w3.org/1999/xlink">
<g id="graph0" class="graph" transform="scale(1 1) rotate(0) translate(4 463)">
<title>models_diagram</title>
<polygon fill="white" stroke="none" points="-4,4 -4,-463 409.193,-463 409.193,4 -4,4"/>
<!-- _diagram_info -->
<g id="node1" class="node"><title>_diagram_info</title>
<text text-anchor="start" x="8" y="-416.6" font-family="Times,serif" font-size="13.00">Models diagram</text>
<text text-anchor="start" x="8" y="-403.6" font-family="Times,serif" font-size="13.00">Date: May 25 2015 &#45; 00:31</text>
<text text-anchor="start" x="8" y="-390.6" font-family="Times,serif" font-size="13.00">Migration version: 20150510223018</text>
<text text-anchor="start" x="8" y="-377.6" font-family="Times,serif" font-size="13.00">Generated by RailRoady 1.3.0</text>
<text text-anchor="start" x="8" y="-364.6" font-family="Times,serif" font-size="13.00">http://railroady.prestonlee.com</text>
</g>
<!-- Cart -->
<g id="node2" class="node"><title>Cart</title>
<path fill="none" stroke="black" d="M94.1824,-193.5C94.1824,-193.5 203.193,-193.5 203.193,-193.5 209.193,-193.5 215.193,-199.5 215.193,-205.5 215.193,-205.5 215.193,-253.5 215.193,-253.5 215.193,-259.5 209.193,-265.5 203.193,-265.5 203.193,-265.5 94.1824,-265.5 94.1824,-265.5 88.1824,-265.5 82.1824,-259.5 82.1824,-253.5 82.1824,-253.5 82.1824,-205.5 82.1824,-205.5 82.1824,-199.5 88.1824,-193.5 94.1824,-193.5"/>
<text text-anchor="middle" x="148.688" y="-250.3" font-family="Times,serif" font-size="14.00">Cart</text>
<polyline fill="none" stroke="black" points="82.1824,-243.5 215.193,-243.5 "/>
<text text-anchor="start" x="90.1824" y="-228.3" font-family="Times,serif" font-size="14.00">id :integer</text>
<text text-anchor="start" x="90.1824" y="-214.3" font-family="Times,serif" font-size="14.00">created_at :datetime</text>
<text text-anchor="start" x="90.1824" y="-200.3" font-family="Times,serif" font-size="14.00">updated_at :datetime</text>
</g>
<!-- LineItem -->
<g id="node3" class="node"><title>LineItem</title>
<path fill="none" stroke="black" d="M189.182,-0.5C189.182,-0.5 298.193,-0.5 298.193,-0.5 304.193,-0.5 310.193,-6.5 310.193,-12.5 310.193,-12.5 310.193,-116.5 310.193,-116.5 310.193,-122.5 304.193,-128.5 298.193,-128.5 298.193,-128.5 189.182,-128.5 189.182,-128.5 183.182,-128.5 177.182,-122.5 177.182,-116.5 177.182,-116.5 177.182,-12.5 177.182,-12.5 177.182,-6.5 183.182,-0.5 189.182,-0.5"/>
<text text-anchor="middle" x="243.688" y="-113.3" font-family="Times,serif" font-size="14.00">LineItem</text>
<polyline fill="none" stroke="black" points="177.182,-106.5 310.193,-106.5 "/>
<text text-anchor="start" x="185.182" y="-91.3" font-family="Times,serif" font-size="14.00">id :integer</text>
<text text-anchor="start" x="185.182" y="-77.3" font-family="Times,serif" font-size="14.00">product_id :integer</text>
<text text-anchor="start" x="185.182" y="-63.3" font-family="Times,serif" font-size="14.00">cart_id :integer</text>
<text text-anchor="start" x="185.182" y="-49.3" font-family="Times,serif" font-size="14.00">created_at :datetime</text>
<text text-anchor="start" x="185.182" y="-35.3" font-family="Times,serif" font-size="14.00">updated_at :datetime</text>
<text text-anchor="start" x="185.182" y="-21.3" font-family="Times,serif" font-size="14.00">quantity :integer</text>
<text text-anchor="start" x="185.182" y="-7.3" font-family="Times,serif" font-size="14.00">order_id :integer</text>
</g>
<!-- Cart&#45;&gt;LineItem -->
<g id="edge1" class="edge"><title>Cart&#45;&gt;LineItem</title>
<path fill="none" stroke="#84be72" d="M173.541,-185.858C182.12,-171.138 191.986,-154.21 201.557,-137.788"/>
<ellipse fill="none" stroke="#84be72" cx="171.316" cy="-189.676" rx="4.00002" ry="4.00002"/>
<polygon fill="#84be72" stroke="#84be72" points="201.799,-137.373 210.722,-130.999 204.316,-133.053 206.834,-128.733 206.834,-128.733 206.834,-128.733 204.316,-133.053 202.946,-126.467 201.799,-137.373 201.799,-137.373"/>
</g>
<!-- Order -->
<g id="node4" class="node"><title>Order</title>
<path fill="none" stroke="black" d="M284.182,-165.5C284.182,-165.5 393.193,-165.5 393.193,-165.5 399.193,-165.5 405.193,-171.5 405.193,-177.5 405.193,-177.5 405.193,-281.5 405.193,-281.5 405.193,-287.5 399.193,-293.5 393.193,-293.5 393.193,-293.5 284.182,-293.5 284.182,-293.5 278.182,-293.5 272.182,-287.5 272.182,-281.5 272.182,-281.5 272.182,-177.5 272.182,-177.5 272.182,-171.5 278.182,-165.5 284.182,-165.5"/>
<text text-anchor="middle" x="338.688" y="-278.3" font-family="Times,serif" font-size="14.00">Order</text>
<polyline fill="none" stroke="black" points="272.182,-271.5 405.193,-271.5 "/>
<text text-anchor="start" x="280.182" y="-256.3" font-family="Times,serif" font-size="14.00">id :integer</text>
<text text-anchor="start" x="280.182" y="-242.3" font-family="Times,serif" font-size="14.00">name :string</text>
<text text-anchor="start" x="280.182" y="-228.3" font-family="Times,serif" font-size="14.00">address :text</text>
<text text-anchor="start" x="280.182" y="-214.3" font-family="Times,serif" font-size="14.00">email :string</text>
<text text-anchor="start" x="280.182" y="-200.3" font-family="Times,serif" font-size="14.00">pay_type :string</text>
<text text-anchor="start" x="280.182" y="-186.3" font-family="Times,serif" font-size="14.00">created_at :datetime</text>
<text text-anchor="start" x="280.182" y="-172.3" font-family="Times,serif" font-size="14.00">updated_at :datetime</text>
</g>
<!-- Order&#45;&gt;LineItem -->
<g id="edge2" class="edge"><title>Order&#45;&gt;LineItem</title>
<path fill="none" stroke="#f6bc48" d="M297.795,-158.336C293.747,-151.392 289.634,-144.335 285.577,-137.373"/>
<ellipse fill="none" stroke="#f6bc48" cx="299.944" cy="-162.024" rx="4.00002" ry="4.00002"/>
<polygon fill="#f6bc48" stroke="#f6bc48" points="285.512,-137.261 284.364,-126.355 282.994,-132.941 280.476,-128.621 280.476,-128.621 280.476,-128.621 282.994,-132.941 276.588,-130.887 285.512,-137.261 285.512,-137.261"/>
</g>
<!-- Product -->
<g id="node5" class="node"><title>Product</title>
<path fill="none" stroke="black" d="M237.182,-330.5C237.182,-330.5 346.193,-330.5 346.193,-330.5 352.193,-330.5 358.193,-336.5 358.193,-342.5 358.193,-342.5 358.193,-446.5 358.193,-446.5 358.193,-452.5 352.193,-458.5 346.193,-458.5 346.193,-458.5 237.182,-458.5 237.182,-458.5 231.182,-458.5 225.182,-452.5 225.182,-446.5 225.182,-446.5 225.182,-342.5 225.182,-342.5 225.182,-336.5 231.182,-330.5 237.182,-330.5"/>
<text text-anchor="middle" x="291.688" y="-443.3" font-family="Times,serif" font-size="14.00">Product</text>
<polyline fill="none" stroke="black" points="225.182,-436.5 358.193,-436.5 "/>
<text text-anchor="start" x="233.182" y="-421.3" font-family="Times,serif" font-size="14.00">id :integer</text>
<text text-anchor="start" x="233.182" y="-407.3" font-family="Times,serif" font-size="14.00">title :string</text>
<text text-anchor="start" x="233.182" y="-393.3" font-family="Times,serif" font-size="14.00">description :text</text>
<text text-anchor="start" x="233.182" y="-379.3" font-family="Times,serif" font-size="14.00">image_url :string</text>
<text text-anchor="start" x="233.182" y="-365.3" font-family="Times,serif" font-size="14.00">price :decimal</text>
<text text-anchor="start" x="233.182" y="-351.3" font-family="Times,serif" font-size="14.00">created_at :datetime</text>
<text text-anchor="start" x="233.182" y="-337.3" font-family="Times,serif" font-size="14.00">updated_at :datetime</text>
</g>
<!-- Product&#45;&gt;LineItem -->
<g id="edge3" class="edge"><title>Product&#45;&gt;LineItem</title>
<path fill="none" stroke="#695975" d="M269.088,-322.36C266.631,-312.894 264.404,-303.26 262.688,-294 253.144,-242.511 248.391,-183.601 246.026,-138.493"/>
<ellipse fill="none" stroke="#695975" cx="270.167" cy="-326.397" rx="4.00001" ry="4.00001"/>
<polygon fill="#695975" stroke="#695975" points="246.026,-138.492 250.024,-128.281 245.778,-133.498 245.529,-128.504 245.529,-128.504 245.529,-128.504 245.778,-133.498 241.035,-128.728 246.026,-138.492 246.026,-138.492"/>
</g>
<!-- Product&#45;&gt;Order -->
<g id="edge4" class="edge"><title>Product&#45;&gt;Order</title>
<path fill="none" stroke="#76eb19" d="M312.667,-320.743C314.338,-314.947 316.026,-309.093 317.697,-303.297"/>
<polygon fill="#76eb19" stroke="#76eb19" points="312.63,-320.871 305.535,-329.233 311.244,-325.676 309.859,-330.48 309.859,-330.48 309.859,-330.48 311.244,-325.676 314.183,-331.727 312.63,-320.871 312.63,-320.871"/>
<polygon fill="#76eb19" stroke="#76eb19" points="317.717,-303.23 324.811,-294.868 319.102,-298.425 320.487,-293.621 320.487,-293.621 320.487,-293.621 319.102,-298.425 316.163,-292.374 317.717,-303.23 317.717,-303.23"/>
</g>
</g>
</svg>
